<?xml version="1.0" standalone="no"?>
<!DOCTYPE svg PUBLIC "-//W3C//DTD SVG 20010904//EN"
 "http://www.w3.org/TR/2001/REC-SVG-20010904/DTD/svg10.dtd">
<svg version="1.0" xmlns="http://www.w3.org/2000/svg"
 width="96.000000pt" height="96.000000pt" viewBox="0 0 96.000000 96.000000"
 preserveAspectRatio="xMidYMid meet">

<g transform="translate(0.000000,96.000000) scale(0.100000,-0.100000)"
fill="#000000" stroke="none">
<path d="M708 831 c-26 -24 -30 -32 -21 -42 10 -10 18 -8 38 11 l26 24 36 -37
37 -37 -39 -40 -39 -40 -46 45 c-25 25 -50 45 -55 45 -6 0 -121 -111 -257
-247 l-247 -248 -32 -83 c-21 -57 -28 -87 -21 -94 7 -7 37 0 94 22 l84 31 222
222 c173 174 219 225 212 237 -8 12 -55 -30 -232 -206 -185 -183 -231 -224
-271 -239 -27 -9 -51 -15 -54 -12 -3 3 3 27 12 54 15 40 57 87 249 281 127
127 236 232 241 232 6 0 29 -18 50 -40 21 -22 44 -40 51 -40 15 0 114 105 114
121 0 15 -93 109 -108 109 -7 0 -26 -13 -44 -29z"/>
<path d="M130 811 c-20 -39 -9 -66 75 -176 97 -129 111 -143 127 -127 8 8 -14
44 -81 131 -87 114 -102 143 -82 155 10 7 32 -9 154 -112 79 -67 117 -84 117
-53 0 5 -53 52 -117 105 -95 78 -123 96 -150 96 -22 0 -36 -6 -43 -19z"/>
<path d="M604 426 c-3 -8 7 -33 21 -55 45 -67 12 -101 -55 -57 -22 14 -46 26
-55 26 -30 0 -14 -29 34 -59 40 -26 50 -39 56 -68 8 -47 59 -98 110 -112 22
-6 74 -14 116 -18 92 -7 109 6 59 45 -17 14 -46 54 -62 89 -32 67 -77 113
-109 113 -12 0 -32 20 -55 55 -38 57 -51 65 -60 41z m119 -140 c26 -10 42 -30
71 -86 l37 -73 -56 6 c-76 8 -118 33 -129 80 -8 32 -7 40 14 62 28 29 22 28
63 11z"/>
</g>
</svg>
