<svg xmlns="http://www.w3.org/2000/svg" version="1.1" width="512px" height="512px" style="shape-rendering:geometricPrecision; text-rendering:geometricPrecision; image-rendering:optimizeQuality; fill-rule:evenodd; clip-rule:evenodd" xmlns:xlink="http://www.w3.org/1999/xlink">
<g><path style="opacity:0.935" fill="#000000" d="M 370.5,-0.5 C 388.167,-0.5 405.833,-0.5 423.5,-0.5C 429.88,2.05332 434.046,6.71998 436,13.5C 436.667,31.1667 436.667,48.8333 436,66.5C 431.667,74.5 427.333,82.5 423,90.5C 422.5,128.165 422.333,165.832 422.5,203.5C 450.221,212.108 469.721,229.775 481,256.5C 488.025,275.468 489.192,294.801 484.5,314.5C 484.682,317.226 485.182,319.893 486,322.5C 499.468,340.095 507.968,359.762 511.5,381.5C 511.5,391.833 511.5,402.167 511.5,412.5C 500.044,467.623 466.711,500.623 411.5,511.5C 401.833,511.5 392.167,511.5 382.5,511.5C 331.154,501.996 298.321,471.996 284,421.5C 269.811,430.672 254.311,433.838 237.5,431C 204.836,422.696 187.169,401.696 184.5,368C 187.245,333.132 205.578,311.798 239.5,304C 265.436,301.306 286.436,310.14 302.5,330.5C 306.659,326.201 308.992,321.035 309.5,315C 304.742,295.641 305.742,276.641 312.5,258C 264.526,232.567 218.193,235.234 173.5,266C 124.323,307.218 110.823,358.051 133,418.5C 154.465,462.663 189.632,487.829 238.5,494C 257.846,495.394 276.679,492.894 295,486.5C 301.901,487.75 304.234,491.75 302,498.5C 300.72,500.308 299.053,501.641 297,502.5C 242.273,519.323 193.44,508.989 150.5,471.5C 142.959,484.084 135.292,496.584 127.5,509C 118.42,512.215 114.253,509.048 115,499.5C 122.714,485.902 130.547,472.402 138.5,459C 100.916,407.684 96.4164,353.517 125,296.5C 133.471,282.026 144.137,269.359 157,258.5C 157.5,239.836 157.667,221.17 157.5,202.5C 149.981,204.244 144.981,201.578 142.5,194.5C 143.066,191.183 144.733,188.683 147.5,187C 213.167,186.333 278.833,186.333 344.5,187C 348.277,189.955 349.443,193.788 348,198.5C 346.786,200.049 345.286,201.215 343.5,202C 340.183,202.498 336.85,202.665 333.5,202.5C 333.334,209.841 333.5,217.174 334,224.5C 344.641,214.261 357.141,207.261 371.5,203.5C 371.667,165.832 371.5,128.165 371,90.5C 366.92,82.6712 362.587,75.0045 358,67.5C 357.333,49.1667 357.333,30.8333 358,12.5C 360.353,6.31536 364.52,1.98203 370.5,-0.5 Z M 374.5,15.5 C 389.745,15.1758 404.911,15.5092 420,16.5C 420.667,31.8333 420.667,47.1667 420,62.5C 416.833,68.1667 413.667,73.8333 410.5,79.5C 401.5,80.8333 392.5,80.8333 383.5,79.5C 380.333,73.8333 377.167,68.1667 374,62.5C 373.183,46.7591 373.35,31.0924 374.5,15.5 Z M 387.5,96.5 C 393.833,96.5 400.167,96.5 406.5,96.5C 406.5,105.833 406.5,115.167 406.5,124.5C 400.167,124.5 393.833,124.5 387.5,124.5C 387.5,115.167 387.5,105.833 387.5,96.5 Z M 387.5,140.5 C 393.833,140.5 400.167,140.5 406.5,140.5C 406.5,147.833 406.5,155.167 406.5,162.5C 400.167,162.5 393.833,162.5 387.5,162.5C 387.5,155.167 387.5,147.833 387.5,140.5 Z M 387.5,178.5 C 393.833,178.5 400.167,178.5 406.5,178.5C 406.5,185.833 406.5,193.167 406.5,200.5C 400.167,200.5 393.833,200.5 387.5,200.5C 387.5,193.167 387.5,185.833 387.5,178.5 Z M 173.5,202.5 C 184.833,202.5 196.167,202.5 207.5,202.5C 207.666,211.839 207.5,221.173 207,230.5C 195.204,234.231 184.204,239.565 174,246.5C 173.5,231.837 173.333,217.17 173.5,202.5 Z M 223.5,202.5 C 237.833,202.5 252.167,202.5 266.5,202.5C 266.5,210.167 266.5,217.833 266.5,225.5C 252.135,224.191 237.802,224.524 223.5,226.5C 223.5,218.5 223.5,210.5 223.5,202.5 Z M 282.5,202.5 C 294.167,202.5 305.833,202.5 317.5,202.5C 317.832,215.517 317.499,228.517 316.5,241.5C 306.043,235.792 295.043,231.459 283.5,228.5C 282.502,219.859 282.169,211.192 282.5,202.5 Z M 387.5,216.5 C 393.833,216.5 400.167,216.5 406.5,216.5C 406.5,223.833 406.5,231.167 406.5,238.5C 400.167,238.5 393.833,238.5 387.5,238.5C 387.5,231.167 387.5,223.833 387.5,216.5 Z M 368.5,220.5 C 369.5,220.5 370.5,220.5 371.5,220.5C 371.667,252.835 371.5,285.168 371,317.5C 355.244,329.828 349.577,345.828 354,365.5C 357.465,377.966 364.965,387.132 376.5,393C 386.068,393.761 389.235,389.594 386,380.5C 367.157,368.469 363.824,353.135 376,334.5C 391.592,321.705 406.259,322.705 420,337.5C 427.42,349.011 427.087,360.344 419,371.5C 414.314,375.188 409.981,379.188 406,383.5C 405.548,391.708 409.381,394.875 417.5,393C 437.769,380.541 444.936,362.708 439,339.5C 436.017,330.508 430.684,323.175 423,317.5C 422.167,285.162 422.333,252.828 423.5,220.5C 453.5,233.538 469.5,256.538 471.5,289.5C 470.582,297.846 469.582,306.18 468.5,314.5C 468.616,318.22 469.116,321.887 470,325.5C 475.234,335.737 480.9,345.737 487,355.5C 504.942,402.901 494.775,443.067 456.5,476C 426.83,497.018 394.83,501.352 360.5,489C 322.901,472.308 302.067,443.475 298,402.5C 297.137,382.951 301.47,364.618 311,347.5C 314.667,341.833 318.333,336.167 322,330.5C 323.202,327.226 324.202,323.893 325,320.5C 324.885,310.298 324.052,300.131 322.5,290C 324.132,257.573 339.465,234.406 368.5,220.5 Z M 387.5,254.5 C 393.833,254.5 400.167,254.5 406.5,254.5C 406.5,261.833 406.5,269.167 406.5,276.5C 400.167,276.5 393.833,276.5 387.5,276.5C 387.5,269.167 387.5,261.833 387.5,254.5 Z M 387.5,292.5 C 393.833,292.5 400.167,292.5 406.5,292.5C 406.5,298.5 406.5,304.5 406.5,310.5C 400.486,309.26 394.486,309.26 388.5,310.5C 387.504,304.537 387.171,298.537 387.5,292.5 Z M 241.5,319.5 C 260.358,317.728 275.858,324.061 288,338.5C 290.03,341.226 291.53,344.226 292.5,347.5C 284.91,365.365 281.077,384.032 281,403.5C 260.446,419.605 239.612,420.105 218.5,405C 197.304,383.287 195.471,360.121 213,335.5C 220.994,327.307 230.494,321.974 241.5,319.5 Z"/></g>
<g><path style="opacity:0.929" fill="#000000" d="M -0.5,102.5 C -0.5,97.8333 -0.5,93.1667 -0.5,88.5C 4.34676,76.4021 13.3468,70.9021 26.5,72C 71.9599,84.2651 117.293,96.9318 162.5,110C 174.712,119.35 177.212,130.85 170,144.5C 163.687,152.383 155.52,155.55 145.5,154C 127.51,149.058 109.51,144.224 91.5,139.5C 91.6666,152.504 91.4999,165.504 91,178.5C 88.7742,182.861 85.2742,184.361 80.5,183C 78.3333,182.167 76.8333,180.667 76,178.5C 75.8328,163.822 75.3328,149.155 74.5,134.5C 53.839,128.668 33.1723,122.835 12.5,117C 6.16411,113.838 1.83077,109.004 -0.5,102.5 Z M 20.5,87.5 C 65.7071,99.2187 110.707,111.719 155.5,125C 159.377,129.283 159.044,133.283 154.5,137C 152.305,138.373 149.971,138.706 147.5,138C 105.558,126.13 63.5577,114.464 21.5,103C 16.0758,100.983 14.2425,97.1497 16,91.5C 17.3968,89.9297 18.8968,88.5964 20.5,87.5 Z"/></g>
<g><path style="opacity:0.935" fill="#000000" d="M 80.5,202.5 C 85.2797,201.641 88.7797,203.308 91,207.5C 91.6667,306.5 91.6667,405.5 91,504.5C 88.5647,509.224 84.7314,510.724 79.5,509C 77.9512,507.786 76.7845,506.286 76,504.5C 75.3333,405.5 75.3333,306.5 76,207.5C 77.025,205.313 78.525,203.646 80.5,202.5 Z"/></g>
<g><path style="opacity:0.921" fill="#000000" d="M 360.5,431.5 C 384.502,431.333 408.502,431.5 432.5,432C 439.15,436.956 439.15,441.956 432.5,447C 408.5,447.667 384.5,447.667 360.5,447C 355.465,443.987 354.298,439.82 357,434.5C 358.145,433.364 359.312,432.364 360.5,431.5 Z"/></g>
</svg>
