<svg xmlns="http://www.w3.org/2000/svg" version="1.1" width="512px" height="512px"
    style="shape-rendering:geometricPrecision; text-rendering:geometricPrecision; image-rendering:optimizeQuality; fill-rule:evenodd; clip-rule:evenodd"
    xmlns:xlink="http://www.w3.org/1999/xlink">
    <g>
        <path style="opacity:0.944" fill="#efc419"
            d="M 129.5,-0.5 C 132.5,-0.5 135.5,-0.5 138.5,-0.5C 140.596,1.43331 142.096,3.76664 143,6.5C 143.667,13.5 143.667,20.5 143,27.5C 140.193,34.3917 135.36,36.225 128.5,33C 126.513,31.6811 125.346,29.8477 125,27.5C 124.333,20.5 124.333,13.5 125,6.5C 125.904,3.76664 127.404,1.43331 129.5,-0.5 Z" />
    </g>
    <g>
        <path style="opacity:0.96" fill="#f0c419"
            d="M 190.5,-0.5 C 193.5,-0.5 196.5,-0.5 199.5,-0.5C 200.458,0.961599 201.624,2.29493 203,3.5C 203.667,26.8333 203.667,50.1667 203,73.5C 196.399,80.3566 190.733,79.69 186,71.5C 185.333,49.5 185.333,27.5 186,5.5C 186.804,2.85408 188.304,0.854084 190.5,-0.5 Z" />
    </g>
    <g>
        <path style="opacity:0.955" fill="#f0c419"
            d="M 251.5,-0.5 C 254.167,-0.5 256.833,-0.5 259.5,-0.5C 261.475,0.646381 262.975,2.31305 264,4.5C 264.667,24.1667 264.667,43.8333 264,63.5C 258.833,71.0791 253.167,71.4124 247,64.5C 246.333,44.5 246.333,24.5 247,4.5C 248.025,2.31305 249.525,0.646381 251.5,-0.5 Z" />
    </g>
    <g>
        <path style="opacity:0.96" fill="#f0c419"
            d="M 311.5,-0.5 C 314.5,-0.5 317.5,-0.5 320.5,-0.5C 322.696,0.854084 324.196,2.85408 325,5.5C 325.667,27.5 325.667,49.5 325,71.5C 320.267,79.69 314.601,80.3566 308,73.5C 307.333,50.1667 307.333,26.8333 308,3.5C 309.376,2.29493 310.542,0.961599 311.5,-0.5 Z" />
    </g>
    <g>
        <path style="opacity:0.953" fill="#efc419"
            d="M 372.5,-0.5 C 375.5,-0.5 378.5,-0.5 381.5,-0.5C 383.596,1.43331 385.096,3.76664 386,6.5C 386.667,13.5 386.667,20.5 386,27.5C 383.193,34.3917 378.36,36.225 371.5,33C 369.513,31.6811 368.346,29.8477 368,27.5C 367.333,20.5 367.333,13.5 368,6.5C 368.904,3.76664 370.404,1.43331 372.5,-0.5 Z" />
    </g>
    <g>
        <path style="opacity:0.966" fill="#efc319"
            d="M 82.5,185.5 C 76.4918,196.505 70.4918,207.505 64.5,218.5C 64.0081,160.75 64.5081,103.083 66,45.5C 72.4033,40.8431 77.7366,41.8431 82,48.5C 82.5,94.1655 82.6667,139.832 82.5,185.5 Z" />
    </g>
    <g>
        <path style="opacity:0.966" fill="#efc319"
            d="M 446.5,218.5 C 440.508,207.505 434.508,196.505 428.5,185.5C 428.333,139.832 428.5,94.1655 429,48.5C 433.263,41.8431 438.597,40.8431 445,45.5C 446.492,103.083 446.992,160.75 446.5,218.5 Z" />
    </g>
    <g>
        <path style="opacity:0.953" fill="#efc418"
            d="M 129.5,51.5 C 136.301,49.7177 140.801,52.0511 143,58.5C 143.667,71.5 143.667,84.5 143,97.5C 139.41,104.251 134.244,105.751 127.5,102C 126.283,100.352 125.45,98.519 125,96.5C 124.333,83.8333 124.333,71.1667 125,58.5C 125.904,55.7666 127.404,53.4333 129.5,51.5 Z" />
    </g>
    <g>
        <path style="opacity:0.951" fill="#efc418"
            d="M 372.5,51.5 C 379.301,49.7177 383.801,52.0511 386,58.5C 386.667,71.1667 386.667,83.8333 386,96.5C 382.971,104.067 377.805,105.9 370.5,102C 369.54,100.581 368.707,99.0806 368,97.5C 367.333,84.5 367.333,71.5 368,58.5C 368.904,55.7666 370.404,53.4333 372.5,51.5 Z" />
    </g>
    <g>
        <path style="opacity:0.992" fill="#f29b1e"
            d="M 428.5,185.5 C 434.508,196.505 440.508,207.505 446.5,218.5C 476.294,292.808 468.46,362.808 423,428.5C 385.425,476.543 336.259,504.21 275.5,511.5C 262.167,511.5 248.833,511.5 235.5,511.5C 157.912,501.136 101.412,461.136 66,391.5C 40.5984,334.02 40.0984,276.353 64.5,218.5C 70.4918,207.505 76.4918,196.505 82.5,185.5C 131.584,119.139 197.584,89.3053 280.5,96C 342.914,104.686 392.247,134.52 428.5,185.5 Z" />
    </g>
    <g>
        <path style="opacity:1" fill="#e57e24"
            d="M 405.5,389.5 C 402.049,386.59 400.882,382.923 402,378.5C 431.567,315.153 425.567,255.486 384,199.5C 345.467,154.974 296.634,134.808 237.5,139C 207.176,142.77 179.843,153.77 155.5,172C 152.833,172.667 150.167,172.667 147.5,172C 146.584,171.722 145.918,171.222 145.5,170.5C 142.189,167.293 141.689,163.626 144,159.5C 193.619,122.167 248.452,112 308.5,129C 380.033,153.535 422.533,203.035 436,277.5C 441.083,316.185 434.75,352.851 417,387.5C 413.565,390.42 409.731,391.087 405.5,389.5 Z" />
    </g>
    <g>
        <path style="opacity:1" fill="#efc319"
            d="M 405.5,389.5 C 395.828,407.847 382.828,423.514 366.5,436.5C 363.66,433.857 360.327,433.024 356.5,434C 309.791,467.384 258.791,476.051 203.5,460C 137.103,434.39 99.6031,386.224 91,315.5C 88.552,284.406 94.552,255.073 109,227.5C 109.818,223.469 108.651,220.136 105.5,217.5C 114.596,200.215 126.596,185.048 141.5,172C 142.745,171.209 144.078,170.709 145.5,170.5C 145.918,171.222 146.584,171.722 147.5,172C 150.167,172.667 152.833,172.667 155.5,172C 179.843,153.77 207.176,142.77 237.5,139C 296.634,134.808 345.467,154.974 384,199.5C 425.567,255.486 431.567,315.153 402,378.5C 400.882,382.923 402.049,386.59 405.5,389.5 Z" />
    </g>
    <g>
        <path style="opacity:1" fill="#f19c1e"
            d="M 249.5,173.5 C 257.737,171.967 264.57,174.301 270,180.5C 278.94,198.712 287.606,217.046 296,235.5C 299.427,240.759 304.26,243.759 310.5,244.5C 327.798,247.233 345.131,249.733 362.5,252C 376.892,258.303 380.392,268.47 373,282.5C 357.233,297.262 342.567,312.929 329,329.5C 328.333,333.833 328.333,338.167 329,342.5C 331.964,360.317 334.797,378.15 337.5,396C 336.318,410.842 328.318,417.176 313.5,415C 297.672,406.587 282.006,397.92 266.5,389C 261.501,386.109 256.167,385.109 250.5,386C 232.567,396.466 214.234,406.132 195.5,415C 185.335,416.834 178.168,413 174,403.5C 173.333,399.167 173.333,394.833 174,390.5C 178.263,370.331 180.929,349.997 182,329.5C 168.433,312.929 153.767,297.262 138,282.5C 134.699,276.958 133.699,270.958 135,264.5C 137.238,257.93 141.738,253.763 148.5,252C 166.189,249.414 183.856,246.747 201.5,244C 207.225,243.057 211.725,240.224 215,235.5C 223.394,217.046 232.06,198.712 241,180.5C 243.441,177.546 246.275,175.213 249.5,173.5 Z" />
    </g>
    <g>
        <path style="opacity:1" fill="#e57e24"
            d="M 105.5,217.5 C 108.651,220.136 109.818,223.469 109,227.5C 94.552,255.073 88.552,284.406 91,315.5C 99.6031,386.224 137.103,434.39 203.5,460C 258.791,476.051 309.791,467.384 356.5,434C 360.327,433.024 363.66,433.857 366.5,436.5C 369.791,442.462 368.457,447.295 362.5,451C 309.437,487.207 252.437,494.874 191.5,474C 123.926,445.735 84.7593,395.235 74,322.5C 70.5199,286.626 76.8533,252.626 93,220.5C 96.3923,216.468 100.559,215.468 105.5,217.5 Z" />
    </g>
</svg>
    