<svg xmlns="http://www.w3.org/2000/svg" version="1.1" width="512px" height="512px" style="shape-rendering:geometricPrecision; text-rendering:geometricPrecision; image-rendering:optimizeQuality; fill-rule:evenodd; clip-rule:evenodd" xmlns:xlink="http://www.w3.org/1999/xlink">
<g><path style="opacity:0.913" fill="#000000" d="M 403.5,18.5 C 450.774,15.2074 482.941,35.5408 500,79.5C 515.601,140.595 501.435,193.761 457.5,239C 438.627,256.937 416.293,268.271 390.5,273C 381.298,273.793 372.131,273.626 363,272.5C 356.606,283.988 350.773,295.822 345.5,308C 377.371,307.019 409.205,305.185 441,302.5C 447.28,302.927 453.113,304.76 458.5,308C 466.667,314.167 474.833,320.333 483,326.5C 486.828,333.026 485.661,338.526 479.5,343C 470.365,348.636 461.365,354.47 452.5,360.5C 461.194,369.272 470.028,377.939 479,386.5C 482.81,393.068 481.643,398.568 475.5,403C 463.02,408.075 450.686,413.409 438.5,419C 445.723,428.557 452.556,438.391 459,448.5C 460.858,454.581 459.025,459.081 453.5,462C 441.78,465.389 429.947,468.222 418,470.5C 410.332,470.166 403.332,467.833 397,463.5C 395.542,465.96 393.709,468.127 391.5,470C 385.658,473.754 379.991,477.754 374.5,482C 359.468,490.793 345.968,488.959 334,476.5C 328.99,468.365 330.156,461.198 337.5,455C 328.611,443.11 320.111,430.943 312,418.5C 307.225,414.193 301.725,411.693 295.5,411C 312.855,425.248 318.022,443.081 311,464.5C 298.219,489.304 278.385,497.804 251.5,490C 229.351,478.868 220.018,461.035 223.5,436.5C 183.558,472.73 137.891,482.23 86.5,465C 30.0106,439.551 2.84395,395.718 5,333.5C 11.711,281.89 38.8777,245.723 86.5,225C 108.649,216.896 131.316,214.563 154.5,218C 127.609,179.441 101.109,140.608 75,101.5C 66.9832,75.7027 75.4832,57.8694 100.5,48C 115.758,44.7538 128.925,48.5872 140,59.5C 185.58,124.993 230.913,190.659 276,256.5C 280.729,265.145 282.229,274.311 280.5,284C 281.069,291.801 284.069,298.468 289.5,304C 293.204,305.071 296.871,305.238 300.5,304.5C 308.038,287.925 315.705,271.425 323.5,255C 304.623,238.426 293.123,217.593 289,192.5C 282.759,138.889 298.259,92.7219 335.5,54C 354.732,35.5512 377.398,23.7179 403.5,18.5 Z M 413.5,30.5 C 450.67,32.1748 475.503,50.5082 488,85.5C 501.842,145.638 485.675,196.138 439.5,237C 424.887,248.971 408.22,256.638 389.5,260C 346.885,262.776 318.719,243.943 305,203.5C 293.127,144.451 309.627,94.9512 354.5,55C 371.843,41.0574 391.509,32.8907 413.5,30.5 Z M 405.5,57.5 C 413.656,57.009 421.656,57.8424 429.5,60C 427.731,64.3712 425.564,68.5378 423,72.5C 415.909,69.0382 408.742,65.7048 401.5,62.5C 400.41,61.6086 400.41,60.6086 401.5,59.5C 402.949,58.8281 404.282,58.1614 405.5,57.5 Z M 107.5,59.5 C 116.807,59.4044 124.641,62.7378 131,69.5C 176.724,135.559 222.057,201.892 267,268.5C 267.738,270.953 268.238,273.453 268.5,276C 266.751,286.089 268.418,295.589 273.5,304.5C 270.845,306.494 267.845,307.994 264.5,309C 262.246,310.377 260.08,311.877 258,313.5C 250.852,287.013 237.019,264.846 216.5,247C 207.333,244.167 204.167,247.333 207,256.5C 207.833,257.333 208.667,258.167 209.5,259C 196.667,271.833 183.833,284.667 171,297.5C 153.798,278.028 148.298,256.028 154.5,231.5C 161.789,233.113 168.956,235.113 176,237.5C 181.767,235.635 183.434,231.968 181,226.5C 178.238,225.019 175.571,223.353 173,221.5C 143.609,179.107 114.609,136.44 86,93.5C 82.8753,75.4892 90.042,64.1559 107.5,59.5 Z M 441.5,65.5 C 449.189,70.8566 455.523,77.5233 460.5,85.5C 459.919,87.7236 458.586,88.557 456.5,88C 449.586,84.4738 442.586,81.1404 435.5,78C 437.599,73.864 439.599,69.6974 441.5,65.5 Z M 378.5,67.5 C 380.103,67.3118 381.437,67.8118 382.5,69C 379.538,75.0916 376.705,81.2582 374,87.5C 369.454,85.4776 364.954,83.3109 360.5,81C 366.389,76.236 372.389,71.736 378.5,67.5 Z M 394.5,74.5 C 402.17,77.4179 409.67,80.7513 417,84.5C 415.249,90.8541 412.749,97.0208 409.5,103C 404.498,101.344 399.498,99.344 394.5,97C 391.467,95.8224 388.801,94.1558 386.5,92C 388.77,85.9616 391.437,80.1283 394.5,74.5 Z M 429.5,90.5 C 437.748,93.6239 445.748,97.2905 453.5,101.5C 450.56,107.717 447.393,113.717 444,119.5C 436.248,116.307 428.748,112.641 421.5,108.5C 424.728,102.714 427.395,96.7141 429.5,90.5 Z M 350.5,91.5 C 355.812,93.8212 361.145,96.1545 366.5,98.5C 366.833,99.1667 367.167,99.8333 367.5,100.5C 364.926,106.647 362.093,112.647 359,118.5C 352.547,115.024 346.047,111.69 339.5,108.5C 342.799,102.546 346.466,96.8798 350.5,91.5 Z M 379.5,105.5 C 387.606,108.135 395.439,111.468 403,115.5C 400.761,121.988 397.928,128.321 394.5,134.5C 386.737,131.024 379.071,127.357 371.5,123.5C 374.728,117.714 377.395,111.714 379.5,105.5 Z M 465.5,106.5 C 467.417,107.116 468.584,108.45 469,110.5C 470.5,117.484 470.666,124.484 469.5,131.5C 465.136,129.318 460.802,127.151 456.5,125C 459.914,119.006 462.914,112.839 465.5,106.5 Z M 332.5,121.5 C 333.873,121.343 335.207,121.51 336.5,122C 342.384,124.773 348.051,127.773 353.5,131C 350.86,137.251 348.027,143.418 345,149.5C 338.816,146.33 332.649,143.164 326.5,140C 328.598,133.874 330.598,127.707 332.5,121.5 Z M 415.5,121.5 C 423.596,124.713 431.596,128.213 439.5,132C 436.692,138.088 433.692,144.088 430.5,150C 422.808,147.579 415.308,144.412 408,140.5C 409.894,134.027 412.394,127.694 415.5,121.5 Z M 365.5,135.5 C 373.626,139.063 381.626,142.896 389.5,147C 386.732,153.37 383.565,159.537 380,165.5C 372.423,161.961 364.923,158.295 357.5,154.5C 360.461,148.25 363.128,141.916 365.5,135.5 Z M 450.5,137.5 C 456.453,139.875 462.286,142.541 468,145.5C 467.427,152.454 465.593,159.121 462.5,165.5C 455.681,162.59 449.015,159.423 442.5,156C 445.589,149.991 448.256,143.824 450.5,137.5 Z M 401.5,152.5 C 409.54,155.353 417.207,159.02 424.5,163.5C 421.962,169.408 419.295,175.242 416.5,181C 408.382,178.284 400.382,174.951 392.5,171C 395.406,164.778 398.406,158.611 401.5,152.5 Z M 324.5,154.5 C 329.629,156.565 334.629,158.898 339.5,161.5C 336.667,167.833 333.833,174.167 331,180.5C 328.045,179.461 325.879,177.628 324.5,175C 323.19,168.156 323.19,161.323 324.5,154.5 Z M 351.5,166.5 C 359.118,169.876 366.618,173.542 374,177.5C 374.667,178.5 374.667,179.5 374,180.5C 371.318,185.864 368.651,191.198 366,196.5C 358.238,193.036 350.738,189.203 343.5,185C 346.27,178.85 348.936,172.684 351.5,166.5 Z M 436.5,168.5 C 443.63,171.565 450.63,174.899 457.5,178.5C 454.227,184.595 450.394,190.262 446,195.5C 439.882,192.859 434.048,189.859 428.5,186.5C 431.366,180.559 434.033,174.559 436.5,168.5 Z M 386.5,183.5 C 394.836,186.392 402.836,190.058 410.5,194.5C 407.493,200.535 404.493,206.535 401.5,212.5C 393.681,209.09 386.014,205.423 378.5,201.5C 381.728,195.714 384.395,189.714 386.5,183.5 Z M 337.5,197.5 C 344.928,201.297 352.428,204.964 360,208.5C 358.131,214.741 355.465,220.741 352,226.5C 344.41,220.912 338.244,214.079 333.5,206C 334.932,203.197 336.266,200.364 337.5,197.5 Z M 422.5,199.5 C 427.752,201.459 432.752,203.959 437.5,207C 431.958,212.211 426.125,217.044 420,221.5C 417.609,220.571 415.775,219.071 414.5,217C 417.318,211.2 419.985,205.367 422.5,199.5 Z M 372.5,214.5 C 380.596,217.713 388.596,221.213 396.5,225C 395.039,227.421 393.706,229.921 392.5,232.5C 383.172,235.114 373.838,234.947 364.5,232C 367.307,226.22 369.974,220.387 372.5,214.5 Z M 121.5,229.5 C 127.5,229.5 133.5,229.5 139.5,229.5C 134.953,258.824 142.286,284.657 161.5,307C 152,316.5 142.5,326 133,335.5C 107.319,309.986 81.8195,284.32 56.5,258.5C 75.1356,242.065 96.8023,232.398 121.5,229.5 Z M 333.5,263.5 C 338.426,265.364 343.426,267.031 348.5,268.5C 342.96,281.918 337.127,295.252 331,308.5C 329.178,310.045 327.011,310.712 324.5,310.5C 321.118,310.324 317.785,309.824 314.5,309C 314.043,308.586 313.709,308.086 313.5,307.5C 320.727,293.05 327.393,278.383 333.5,263.5 Z M 45.5,268.5 C 71.9158,293.414 97.9158,318.914 123.5,345C 114,354.5 104.5,364 95,373.5C 72.5371,354.59 46.7038,347.257 17.5,351.5C 16.0865,320.072 25.4199,292.406 45.5,268.5 Z M 218.5,268.5 C 233.925,284.352 243.258,303.352 246.5,325.5C 221.62,329.282 199.62,323.116 180.5,307C 193.369,294.298 206.035,281.465 218.5,268.5 Z M 438.5,315.5 C 442.263,315.857 445.93,316.69 449.5,318C 456.45,322.615 463.116,327.615 469.5,333C 459.838,339.833 449.838,346.166 439.5,352C 400.466,350.26 361.466,347.76 322.5,344.5C 323.577,337.448 324.91,330.448 326.5,323.5C 363.988,320.992 401.321,318.325 438.5,315.5 Z M 170.5,316.5 C 193.113,335.324 219.113,342.657 248.5,338.5C 249.851,370.287 240.018,397.954 219,421.5C 193.5,396 168,370.5 142.5,345C 152.036,335.632 161.369,326.132 170.5,316.5 Z M 279.5,317.5 C 282.5,317.5 285.5,317.5 288.5,317.5C 283.654,342.22 278.487,366.887 273,391.5C 265.867,392.022 260.033,389.355 255.5,383.5C 261.084,366.668 262.751,349.502 260.5,332C 264.39,323.941 270.723,319.108 279.5,317.5 Z M 301.5,319.5 C 305.163,320.266 308.829,321.1 312.5,322C 308.218,346.075 303.385,370.242 298,394.5C 297.326,395.578 296.326,396.245 295,396.5C 291.719,396.045 288.552,395.211 285.5,394C 291.381,369.308 296.714,344.475 301.5,319.5 Z M 132.5,354.5 C 158.299,379.798 183.965,405.298 209.5,431C 185.789,451.628 158.122,461.461 126.5,460.5C 130.739,431.278 123.406,405.445 104.5,383C 114.036,373.632 123.369,364.132 132.5,354.5 Z M 319.5,357.5 C 359.163,360.307 398.83,363.141 438.5,366C 447.804,374.303 456.804,382.969 465.5,392C 453.209,398.311 440.542,403.811 427.5,408.5C 391.134,395.433 354.801,382.267 318.5,369C 317.57,365.117 317.904,361.283 319.5,357.5 Z M 21.5,363.5 C 45.7383,360.86 67.0716,367.36 85.5,383C 72.6527,396.014 59.6527,408.847 46.5,421.5C 32.4239,405.348 23.0906,386.681 18.5,365.5C 19.6016,364.824 20.6016,364.158 21.5,363.5 Z M 314.5,381.5 C 350.583,394.372 386.583,407.539 422.5,421C 430.307,430.269 437.641,439.936 444.5,450C 435.914,453.19 427.08,455.69 418,457.5C 410.796,455.651 403.962,452.817 397.5,449C 368.167,433 338.833,417 309.5,401C 311.231,394.511 312.897,388.011 314.5,381.5 Z M 94.5,392.5 C 105.534,404.243 112.034,418.243 114,434.5C 114.698,442.528 114.532,450.528 113.5,458.5C 91.7625,455.13 72.7625,446.13 56.5,431.5C 69.1879,418.479 81.8546,405.479 94.5,392.5 Z M 249.5,398.5 C 253.105,399.963 256.771,401.463 260.5,403C 255.209,403.652 250.376,405.485 246,408.5C 246.829,405.148 247.996,401.815 249.5,398.5 Z M 261.5,415.5 C 284.888,414.061 298.221,424.894 301.5,448C 296.915,472.95 282.248,482.95 257.5,478C 236.909,467.487 231.409,451.654 241,430.5C 246.209,423.158 253.043,418.158 261.5,415.5 Z M 338.5,432.5 C 344.604,435.386 350.604,438.553 356.5,442C 353.801,444.51 350.801,446.176 347.5,447C 344.102,442.362 341.102,437.529 338.5,432.5 Z M 369.5,448.5 C 374.226,451.281 379.059,453.948 384,456.5C 384.163,458.387 383.329,459.887 381.5,461C 374.635,465.597 367.635,469.93 360.5,474C 353.404,475.189 347.737,472.856 343.5,467C 352.409,461.057 361.076,454.89 369.5,448.5 Z"/></g>
<g><path style="opacity:0.925" fill="#000000" d="M 404.5,44.5 C 448.205,44.0279 474.038,65.3612 482,108.5C 486.73,155.514 471.564,194.681 436.5,226C 416.107,242.932 392.774,249.598 366.5,246C 343.293,240.464 327.127,226.631 318,204.5C 303.52,156.085 313.187,113.085 347,75.5C 363.024,59.2396 382.19,48.9063 404.5,44.5 Z M 405.5,57.5 C 404.282,58.1614 402.949,58.8281 401.5,59.5C 400.41,60.6086 400.41,61.6086 401.5,62.5C 408.742,65.7048 415.909,69.0382 423,72.5C 425.564,68.5378 427.731,64.3712 429.5,60C 421.656,57.8424 413.656,57.009 405.5,57.5 Z M 441.5,65.5 C 439.599,69.6974 437.599,73.864 435.5,78C 442.586,81.1404 449.586,84.4738 456.5,88C 458.586,88.557 459.919,87.7236 460.5,85.5C 455.523,77.5233 449.189,70.8566 441.5,65.5 Z M 378.5,67.5 C 372.389,71.736 366.389,76.236 360.5,81C 364.954,83.3109 369.454,85.4776 374,87.5C 376.705,81.2582 379.538,75.0916 382.5,69C 381.437,67.8118 380.103,67.3118 378.5,67.5 Z M 394.5,74.5 C 391.437,80.1283 388.77,85.9616 386.5,92C 388.801,94.1558 391.467,95.8224 394.5,97C 399.498,99.344 404.498,101.344 409.5,103C 412.749,97.0208 415.249,90.8541 417,84.5C 409.67,80.7513 402.17,77.4179 394.5,74.5 Z M 429.5,90.5 C 427.395,96.7141 424.728,102.714 421.5,108.5C 428.748,112.641 436.248,116.307 444,119.5C 447.393,113.717 450.56,107.717 453.5,101.5C 445.748,97.2905 437.748,93.6239 429.5,90.5 Z M 350.5,91.5 C 346.466,96.8798 342.799,102.546 339.5,108.5C 346.047,111.69 352.547,115.024 359,118.5C 362.093,112.647 364.926,106.647 367.5,100.5C 367.167,99.8333 366.833,99.1667 366.5,98.5C 361.145,96.1545 355.812,93.8212 350.5,91.5 Z M 379.5,105.5 C 377.395,111.714 374.728,117.714 371.5,123.5C 379.071,127.357 386.737,131.024 394.5,134.5C 397.928,128.321 400.761,121.988 403,115.5C 395.439,111.468 387.606,108.135 379.5,105.5 Z M 465.5,106.5 C 462.914,112.839 459.914,119.006 456.5,125C 460.802,127.151 465.136,129.318 469.5,131.5C 470.666,124.484 470.5,117.484 469,110.5C 468.584,108.45 467.417,107.116 465.5,106.5 Z M 332.5,121.5 C 330.598,127.707 328.598,133.874 326.5,140C 332.649,143.164 338.816,146.33 345,149.5C 348.027,143.418 350.86,137.251 353.5,131C 348.051,127.773 342.384,124.773 336.5,122C 335.207,121.51 333.873,121.343 332.5,121.5 Z M 415.5,121.5 C 412.394,127.694 409.894,134.027 408,140.5C 415.308,144.412 422.808,147.579 430.5,150C 433.692,144.088 436.692,138.088 439.5,132C 431.596,128.213 423.596,124.713 415.5,121.5 Z M 365.5,135.5 C 363.128,141.916 360.461,148.25 357.5,154.5C 364.923,158.295 372.423,161.961 380,165.5C 383.565,159.537 386.732,153.37 389.5,147C 381.626,142.896 373.626,139.063 365.5,135.5 Z M 450.5,137.5 C 448.256,143.824 445.589,149.991 442.5,156C 449.015,159.423 455.681,162.59 462.5,165.5C 465.593,159.121 467.427,152.454 468,145.5C 462.286,142.541 456.453,139.875 450.5,137.5 Z M 401.5,152.5 C 398.406,158.611 395.406,164.778 392.5,171C 400.382,174.951 408.382,178.284 416.5,181C 419.295,175.242 421.962,169.408 424.5,163.5C 417.207,159.02 409.54,155.353 401.5,152.5 Z M 324.5,154.5 C 323.19,161.323 323.19,168.156 324.5,175C 325.879,177.628 328.045,179.461 331,180.5C 333.833,174.167 336.667,167.833 339.5,161.5C 334.629,158.898 329.629,156.565 324.5,154.5 Z M 351.5,166.5 C 348.936,172.684 346.27,178.85 343.5,185C 350.738,189.203 358.238,193.036 366,196.5C 368.651,191.198 371.318,185.864 374,180.5C 374.667,179.5 374.667,178.5 374,177.5C 366.618,173.542 359.118,169.876 351.5,166.5 Z M 436.5,168.5 C 434.033,174.559 431.366,180.559 428.5,186.5C 434.048,189.859 439.882,192.859 446,195.5C 450.394,190.262 454.227,184.595 457.5,178.5C 450.63,174.899 443.63,171.565 436.5,168.5 Z M 386.5,183.5 C 384.395,189.714 381.728,195.714 378.5,201.5C 386.014,205.423 393.681,209.09 401.5,212.5C 404.493,206.535 407.493,200.535 410.5,194.5C 402.836,190.058 394.836,186.392 386.5,183.5 Z M 337.5,197.5 C 336.266,200.364 334.932,203.197 333.5,206C 338.244,214.079 344.41,220.912 352,226.5C 355.465,220.741 358.131,214.741 360,208.5C 352.428,204.964 344.928,201.297 337.5,197.5 Z M 422.5,199.5 C 419.985,205.367 417.318,211.2 414.5,217C 415.775,219.071 417.609,220.571 420,221.5C 426.125,217.044 431.958,212.211 437.5,207C 432.752,203.959 427.752,201.459 422.5,199.5 Z M 372.5,214.5 C 369.974,220.387 367.307,226.22 364.5,232C 373.838,234.947 383.172,235.114 392.5,232.5C 393.706,229.921 395.039,227.421 396.5,225C 388.596,221.213 380.596,217.713 372.5,214.5 Z"/></g>
<g><path style="opacity:0.841" fill="#000000" d="M 99.5,79.5 C 105.314,79.644 108.648,82.644 109.5,88.5C 108.991,92.5923 106.658,94.5923 102.5,94.5C 96.4672,92.7771 94.3006,88.7771 96,82.5C 97.1451,81.3636 98.3117,80.3636 99.5,79.5 Z"/></g>
<g><path style="opacity:0.89" fill="#000000" d="M 111.5,96.5 C 114.617,96.6423 117.117,97.9756 119,100.5C 134.012,122.531 148.512,144.865 162.5,167.5C 160.144,174.769 155.977,176.102 150,171.5C 136.248,150.328 122.248,129.328 108,108.5C 105.259,103.202 106.426,99.202 111.5,96.5 Z"/></g>
</svg>
